<svg xmlns="http://www.w3.org/2000/svg" xmlns:xlink="http://www.w3.org/1999/xlink" id="Calque_1" x="0" y="0" version="1.1" viewBox="0 0 100.1 102.6" xml:space="preserve" style="enable-background:new 0 0 100.1 102.6"><style type="text/css">.st0{fill:#ef5451}</style><g><path d="M84.8,93V75.8v-1.6h1.6h2.7c4.3,0,7.9-3.5,7.9-7.9V20.1c0-2.1-0.8-4.1-2.3-5.6c-1.5-1.5-3.5-2.3-5.6-2.3h-79 c-4.3,0-7.9,3.5-7.9,7.9v46.2c0,4.3,3.5,7.9,7.9,7.9h49.4h0.7l0.5,0.5l20,20c0.4,0.5,1,0.7,1.7,0.7c0.3,0,0.6-0.1,0.9-0.2 C84.2,94.8,84.8,94,84.8,93z M82.4,69.4c-1.2,0-2.3,0.9-2.4,2.2c0,0.6,0,7.4,0,11.8l0,3.8l-2.7-2.7L62.9,70.1l0,0c0,0,0,0-0.1-0.1 c-0.5-0.4-1-0.6-1.6-0.6H10.1C8.4,69.4,7,68,7,66.3V20.1c0-1.7,1.4-3.1,3.1-3.1h79c1.7,0,3.1,1.4,3.1,3.1v46.2 c0,1.7-1.4,3.1-3.1,3.1H82.4z" class="st0"/><g><g><path d="M49.6,39.2c-2.2,0-4,1.8-4,4c0,2.2,1.8,4,4,4c2.2,0,4-1.8,4-4C53.6,41,51.8,39.2,49.6,39.2z" class="st0"/></g></g><g><g><path d="M31.2,39.2c-2.2,0-4,1.8-4,4c0,2.2,1.8,4,4,4c2.2,0,4-1.8,4-4C35.2,41,33.4,39.2,31.2,39.2z" class="st0"/></g></g><g><g><path d="M68.1,39.2c-2.2,0-4,1.8-4,4c0,2.2,1.8,4,4,4c2.2,0,4-1.8,4-4C72,41,70.3,39.2,68.1,39.2z" class="st0"/></g></g></g></svg>