<?xml version="1.0" encoding="utf-8"?>
<!-- Generator: Adobe Illustrator 16.0.0, SVG Export Plug-In . SVG Version: 6.00 Build 0)  -->
<svg version="1.2" baseProfile="tiny" id="Calque_1"
	 xmlns="http://www.w3.org/2000/svg" xmlns:xlink="http://www.w3.org/1999/xlink" x="0px" y="0px" width="600px" height="458px"
	 viewBox="0 0 600 458" xml:space="preserve">
<g>
	<path fill="#16294F" d="M301.742,224.141c0,0,0,0,0,0.004L277,248.883l3.395,3.395l32.273-32.272l-3.395-3.395L301.742,224.141z
		 M280.395,250.016l-1.133-1.133l23.042-23.043l1.133,1.133L280.395,250.016z M304.57,225.84l-1.133-1.133l5.836-5.832l1.133,1.129
		L304.57,225.84z"/>
	<path fill="#16294F" d="M309.332,214.2c0.441,0,0.801-0.356,0.801-0.802v-5.598c0-0.441-0.359-0.801-0.801-0.801
		s-0.801,0.359-0.801,0.801v5.598C308.531,213.844,308.891,214.2,309.332,214.2L309.332,214.2z"/>
	<path fill="#16294F" d="M309.332,225.399c-0.441,0-0.801,0.359-0.801,0.802v5.601c0,0.441,0.359,0.801,0.801,0.801
		s0.801-0.358,0.801-0.801V226.2C310.133,225.758,309.773,225.399,309.332,225.399L309.332,225.399z"/>
	<path fill="#16294F" d="M321.332,219h-5.602c-0.441,0-0.801,0.359-0.801,0.801c0,0.442,0.358,0.801,0.801,0.801h5.602
		c0.441,0,0.801-0.358,0.801-0.801C322.133,219.36,321.773,219,321.332,219L321.332,219z"/>
	<path fill="#16294F" d="M297.332,220.602h5.598c0.441,0,0.801-0.358,0.801-0.801c0-0.441-0.358-0.801-0.801-0.801h-5.598
		c-0.441,0-0.801,0.359-0.801,0.801C296.531,220.243,296.891,220.602,297.332,220.602L297.332,220.602z"/>
	<path fill="#16294F" d="M314.133,215.801c0.203,0,0.406-0.078,0.563-0.234l3.962-3.961c0.313-0.313,0.313-0.816,0-1.133
		c-0.313-0.312-0.816-0.312-1.13,0l-3.961,3.961c-0.313,0.313-0.313,0.82,0,1.133C313.723,215.723,313.926,215.801,314.133,215.801
		L314.133,215.801z"/>
	<path fill="#16294F" d="M314.695,224.036c-0.313-0.313-0.816-0.313-1.129,0c-0.313,0.312-0.313,0.815,0,1.128l3.961,3.961
		c0.152,0.155,0.359,0.233,0.563,0.233c0.207,0,0.41-0.078,0.566-0.233c0.313-0.313,0.313-0.816,0-1.129L314.695,224.036z"/>
	<path fill="#16294F" d="M303.965,215.567c0.156,0.156,0.363,0.234,0.566,0.234s0.41-0.078,0.566-0.234
		c0.313-0.313,0.313-0.82,0-1.133l-3.961-3.961c-0.313-0.312-0.817-0.312-1.134,0c-0.313,0.316-0.313,0.82,0,1.133L303.965,215.567z
		"/>
</g>
</svg>
