<?xml version="1.0" encoding="utf-8"?>
<!-- Generator: Adobe Illustrator 26.0.1, SVG Export Plug-In . SVG Version: 6.00 Build 0)  -->
<svg version="1.1" id="Calque_1" xmlns="http://www.w3.org/2000/svg" xmlns:xlink="http://www.w3.org/1999/xlink" x="0px" y="0px"
	 viewBox="0 0 100.1 102.6" style="enable-background:new 0 0 100.1 102.6;" xml:space="preserve">
<style type="text/css">
	.st0{fill:#FFFFFF;}
</style>
<g>
	<g>
		<path class="st0" d="M7.7,100.6c-1.7,0-3.4-0.7-4.8-2l0,0c-1.3-1.3-2-3-2-4.8s0.7-3.5,2-4.8l37.3-37c2.6-2.6,6.9-2.6,9.5,0
			s2.6,6.9,0,9.5L12.5,98.7C11.2,100,9.5,100.6,7.7,100.6z M44.9,53.6c-0.8,0-1.6,0.3-2.2,0.9L5.5,91.7c-0.6,0.6-0.9,1.4-0.9,2.2
			s0.3,1.6,0.9,2.2l0,0c1.2,1.2,3.2,1.2,4.4,0L47.1,59c0.6-0.6,0.9-1.4,0.9-2.2s-0.3-1.6-0.9-2.2C46.5,53.9,45.7,53.6,44.9,53.6z"/>
	</g>
	<g>
		
			<rect x="46.4" y="46.6" transform="matrix(0.7072 -0.707 0.707 0.7072 -18.5988 51.8749)" class="st0" width="13.8" height="3.6"/>
	</g>
	<g>
		<g>
			<path class="st0" d="M80.2,52.5c-0.5,0-1.1-0.2-1.4-0.7l-8.5-10.6l-12.6,4.9c-0.7,0.3-1.4,0.1-1.9-0.4s-0.7-1.3-0.4-1.9l4.9-12.6
				l-10.6-8.5c-0.6-0.4-0.8-1.2-0.6-1.9c0.2-0.7,0.8-1.2,1.5-1.3L64,17.4l2-13.2c0.1-0.7,0.6-1.3,1.3-1.5c0.7-0.2,1.4,0.1,1.9,0.6
				l8.5,10.6L90.3,9c0.7-0.3,1.4-0.1,1.9,0.4s0.7,1.3,0.4,1.9l-4.9,12.6l10.6,8.5c0.6,0.4,0.8,1.2,0.6,1.9c-0.2,0.7-0.8,1.2-1.5,1.3
				L84,37.7L82,51c-0.1,0.7-0.6,1.3-1.3,1.5C80.5,52.5,80.3,52.5,80.2,52.5z M70.9,37.4c0.5,0,1,0.2,1.4,0.7l6.8,8.4l1.6-10.7
				c0.1-0.8,0.7-1.4,1.5-1.5l10.7-1.6l-8.4-6.8c-0.6-0.5-0.8-1.3-0.5-2l3.9-10.1l-10.1,3.9c-0.7,0.3-1.6,0.1-2-0.5L69,8.8l-1.6,10.7
				c-0.1,0.8-0.7,1.4-1.5,1.5l-10.7,1.6l8.4,6.8c0.6,0.5,0.8,1.3,0.5,2l-3.9,10.1l10.1-3.9C70.4,37.4,70.7,37.4,70.9,37.4z"/>
		</g>
		<g>
			<circle class="st0" cx="88.7" cy="42.3" r="1.9"/>
		</g>
		<g>
			<circle class="st0" cx="60" cy="13.6" r="1.9"/>
		</g>
		<g>
			<g>
				<circle class="st0" cx="68.4" cy="49.2" r="1.9"/>
			</g>
			<g>
				<circle class="st0" cx="52.9" cy="33.7" r="1.9"/>
			</g>
		</g>
		<g>
			<g>
				<circle class="st0" cx="95.2" cy="22.4" r="1.9"/>
			</g>
			<g>
				<circle class="st0" cx="79.6" cy="6.9" r="1.9"/>
			</g>
		</g>
	</g>
</g>
</svg>
