<?xml version="1.0" encoding="utf-8"?>
<!-- Generator: Adobe Illustrator 26.0.1, SVG Export Plug-In . SVG Version: 6.00 Build 0)  -->
<svg version="1.1" id="Calque_1" xmlns="http://www.w3.org/2000/svg" xmlns:xlink="http://www.w3.org/1999/xlink" x="0px" y="0px"
	 viewBox="0 0 100.1 102.6" style="enable-background:new 0 0 100.1 102.6;" xml:space="preserve">
<style type="text/css">
	.st0{fill:#EF5451;}
</style>
<g>
	<path class="st0" d="M25.5,1.4C13,1.4,2.8,11.6,2.8,24.1v53.8c0,12.5,10.2,22.7,22.7,22.7s22.7-10.2,22.7-22.7V24.1
		C48.2,11.6,38.1,1.4,25.5,1.4z M25.5,96.7c-10.4,0-18.8-8.4-18.8-18.8V53h37.6v24.9C44.3,88.3,35.9,96.7,25.5,96.7z M44.3,49.1H6.7
		V24.1c0-10.4,8.4-18.8,18.8-18.8s18.8,8.4,18.8,18.8V49.1z"/>
	<path class="st0" d="M74.3,51.3c-13.6,0-24.7,11.1-24.7,24.7s11.1,24.7,24.7,24.7S99,89.6,99,76S87.9,51.3,74.3,51.3z M53.6,76
		c0-5,1.8-9.6,4.8-13.2l29.2,29.2c-3.6,3-8.2,4.8-13.2,4.8C62.9,96.7,53.6,87.4,53.6,76z M90.3,89.2L61.1,60c3.6-3,8.2-4.8,13.2-4.8
		c11.4,0,20.8,9.3,20.8,20.8C95.1,81,93.3,85.6,90.3,89.2z"/>
</g>
</svg>
