<?xml version="1.0" encoding="utf-8"?>
<!-- Generator: Adobe Illustrator 26.0.1, SVG Export Plug-In . SVG Version: 6.00 Build 0)  -->
<svg version="1.1" id="Calque_1" xmlns="http://www.w3.org/2000/svg" xmlns:xlink="http://www.w3.org/1999/xlink" x="0px" y="0px"
	 viewBox="0 0 100.1 102.6" style="enable-background:new 0 0 100.1 102.6;" xml:space="preserve">
<style type="text/css">
	.st0{fill:#EF5451;}
</style>
<g>
	<path class="st0" d="M8,8.6h20.7V4.4H5.9c-1.2,0-2.1,0.9-2.1,2.1v22.8H8V8.6z"/>
	<path class="st0" d="M8,72.9H3.7v22.8c0,1.2,0.9,2.1,2.1,2.1h22.8v-4.2H8V72.9z"/>
	<path class="st0" d="M95,4.4H72.2v4.2h20.7v20.7h4.2V6.5C97.1,5.4,96.2,4.4,95,4.4z"/>
	<path class="st0" d="M92.9,93.6H72.2v4.2H95c1.2,0,2.1-0.9,2.1-2.1V72.9h-4.2V93.6z"/>
	<path class="st0" d="M6.5,51.7h85.2c1.6,0,3-1.3,3-3s-1.3-3-3-3h-7.1V18.5c0-1-0.8-1.8-1.8-1.8h-4.8c-1,0-1.8,0.8-1.8,1.8v27.3
		h-5.8V18.5c0-1-0.8-1.8-1.8-1.8H55.4c-1,0-1.8,0.8-1.8,1.8v27.3h-6.3V18.5c0-1-0.8-1.8-1.8-1.8h-4.8c-1,0-1.8,0.8-1.8,1.8v27.3
		h-5.8V18.5c0-1-0.8-1.8-1.8-1.8H18c-1,0-1.8,0.8-1.8,1.8v27.3H6.5c-1.6,0-3,1.3-3,3S4.9,51.7,6.5,51.7z"/>
	<path class="st0" d="M16.2,83.7c0,1,0.8,1.8,1.8,1.8h13.2c1,0,1.8-0.8,1.8-1.8V60H16.2V83.7z"/>
	<path class="st0" d="M38.9,83.7c0,1,0.8,1.8,1.8,1.8h4.8c1,0,1.8-0.8,1.8-1.8V60h-8.4V83.7z"/>
	<path class="st0" d="M53.6,83.7c0,1,0.8,1.8,1.8,1.8h13.2c1,0,1.8-0.8,1.8-1.8V59.9H53.6V83.7z"/>
	<path class="st0" d="M78.1,85.5h4.8c1,0,1.8-0.8,1.8-1.8V60h-8.4v23.7C76.3,84.7,77.1,85.5,78.1,85.5z"/>
</g>
</svg>
