<?xml version="1.0" encoding="utf-8"?>
<!-- Generator: Adobe Illustrator 21.0.2, SVG Export Plug-In . SVG Version: 6.00 Build 0)  -->
<svg version="1.1" id="Calque_1" xmlns="http://www.w3.org/2000/svg" xmlns:xlink="http://www.w3.org/1999/xlink" x="0px" y="0px"
	 viewBox="0 0 50 50" style="enable-background:new 0 0 50 50;" xml:space="preserve">
<style type="text/css">
	.st0{fill:#EF5451;}
</style>
<g>
	<g>
		<path class="st0" d="M3,21.8v24.5C3,46.6,3.3,47,3.7,47h42.4c0.4,0,0.7-0.3,0.7-0.7V21.8c0-0.2-0.1-0.5-0.3-0.6l-8.8-5.7
			c0,0-0.1,0-0.1,0l-0.2-0.1l0-0.2v-1.9c0-0.4-0.3-0.7-0.7-0.7h-3.6l-0.1,0L25.7,8c-0.2-0.1-0.5-0.1-0.7,0l-7.4,4.6h-4.5
			c-0.4,0-0.7,0.3-0.7,0.7v2.1l-0.2,0.1c-0.1,0-0.1,0-0.2,0.1l-8.8,5.6C3.1,21.3,3,21.5,3,21.8z M5.6,45.6l18.8-10.8l0.1,0.1
			l19.6,10.7H5.6z M37.3,17l8,5.2v7.7l-8,4.9V17z M45.4,31.5v13.2l-11.4-6.2L45.4,31.5z M25.3,9.4l5.1,3.2H20.2L25.3,9.4z M13.8,14
			h22.2v21.6l-0.1,0.1l-3.3,2l-0.1-0.1l-7.7-4.2c-0.2-0.1-0.5-0.1-0.7,0l-7.1,4.1l-3.1-1.9L13.8,14z M4.4,22.2l8-5.2v17.8l-8-4.9
			V22.2z M4.4,31.5l11.2,6.8L4.4,44.7V31.5z"/>
		<path class="st0" d="M29.1,16.4H17.8c-0.4,0-0.7,0.3-0.7,0.7v5.7c0,0.4,0.3,0.7,0.7,0.7h11.3c0.4,0,0.7-0.3,0.7-0.7v-5.7
			C29.8,16.7,29.5,16.4,29.1,16.4z M28.4,22h-9.9v-4.3h9.9V22z"/>
		<rect x="17.1" y="25.8" class="st0" width="14.6" height="1.4"/>
		<rect x="17.1" y="29.6" class="st0" width="14.6" height="1.4"/>
		<path class="st0" d="M45.6,8.3c-0.2,0-0.4,0.1-0.5,0.2l-3.3,3.3c-0.3,0.3-0.3,0.7,0,1c0.3,0.3,0.7,0.3,1,0l3.3-3.3
			c0.1-0.1,0.2-0.3,0.2-0.5c0-0.2-0.1-0.4-0.2-0.5S45.8,8.3,45.6,8.3z"/>
		<path class="st0" d="M4.6,8.5C4.5,8.4,4.3,8.3,4.1,8.3c-0.2,0-0.4,0.1-0.5,0.2C3.5,8.7,3.4,8.8,3.4,9c0,0.2,0.1,0.4,0.2,0.5
			L7,12.8c0.3,0.3,0.7,0.3,1,0c0.1-0.1,0.2-0.3,0.2-0.5S8.1,12,7.9,11.9L4.6,8.5z"/>
		<path class="st0" d="M37.3,2.7c-0.1-0.2-0.2-0.3-0.4-0.4c-0.1,0-0.2,0-0.3,0c-0.1,0-0.2,0-0.3,0.1c-0.2,0.1-0.3,0.2-0.4,0.4
			l-1.9,4.7c-0.1,0.2-0.1,0.4,0,0.5c0.1,0.2,0.2,0.3,0.4,0.4l0,0c0.3,0.1,0.8,0,0.9-0.4l1.9-4.7C37.4,3,37.3,2.8,37.3,2.7z"/>
		<path class="st0" d="M14.3,2.3c-0.1,0-0.2-0.1-0.3-0.1c-0.1,0-0.2,0-0.3,0c-0.4,0.1-0.5,0.5-0.4,0.9l1.9,4.7
			c0.1,0.3,0.6,0.5,0.9,0.4c0.4-0.1,0.5-0.5,0.4-0.9l-1.9-4.7C14.6,2.5,14.5,2.4,14.3,2.3z"/>
	</g>
</g>
</svg>
