<svg xmlns="http://www.w3.org/2000/svg" xmlns:xlink="http://www.w3.org/1999/xlink" id="Calque_1" x="0" y="0" version="1.1" viewBox="0 0 100.1 102.6" xml:space="preserve" style="enable-background:new 0 0 100.1 102.6"><style type="text/css">.st0{fill:#fff}</style><g><g><g><path d="M93.5,28.8l-6.7-6.7L69.9,39l6.7,6.7C76.6,45.7,92.9,29,93.5,28.8z" class="st0"/><rect width="9.5" height="23.7" x="45.3" y="8.6" class="st0"/><path d="M23.5,45.7l6.7-6.7L13.4,22.1l-6.7,6.7C7.2,29,23.5,45.7,23.5,45.7z" class="st0"/><path d="M88,51.3H64.3c0,7.9-6.4,14.2-14.2,14.2s-14.2-6.4-14.2-14.2H12.1c-5.2,0-9.5,4.3-9.5,9.5v23.7 c0,5.2,4.3,9.5,9.5,9.5H88c5.2,0,9.5-4.3,9.5-9.5V60.8C97.5,55.6,93.2,51.3,88,51.3z" class="st0"/></g></g></g></svg>