<svg xmlns="http://www.w3.org/2000/svg" xmlns:xlink="http://www.w3.org/1999/xlink" id="Calque_1" x="0" y="0" version="1.1" viewBox="0 0 100.1 102.6" xml:space="preserve" style="enable-background:new 0 0 100.1 102.6"><style type="text/css">.st0{fill:#fff}</style><g><path d="M86.9,63.6h8.2v8.2h-8.2V63.6z M86.9,47.2h8.2v8.2h-8.2V47.2z M95.1,80h-8.2v8.2C91,88.2,95.1,84.1,95.1,80z M54.1,14.4h8.2v8.2h-8.2V14.4z M86.9,30.8h8.2V39h-8.2V30.8z M86.9,14.4v8.2h8.2C95.1,18.5,91,14.4,86.9,14.4z M5,30.8h8.2V39H5 V30.8z M70.5,14.4h8.2v8.2h-8.2V14.4z M70.5,80h8.2v8.2h-8.2V80z M13.2,14.4c-4.1,0-8.2,4.1-8.2,8.2h8.2V14.4z M37.8,14.4H46v8.2 h-8.2V14.4z M21.4,14.4h8.2v8.2h-8.2V14.4z M5,47.2V80c0,4.5,3.7,8.2,8.2,8.2h49.2v-41H5z M13.2,80l10.2-13.2l7.3,8.8L41,62.4 L54.1,80H13.2z" class="st0"/></g></svg>