<?xml version="1.0" encoding="utf-8"?>
<!-- Generator: Adobe Illustrator 16.0.0, SVG Export Plug-In . SVG Version: 6.00 Build 0)  -->
<svg version="1.2" baseProfile="tiny" id="Calque_1"
	 xmlns="http://www.w3.org/2000/svg" xmlns:xlink="http://www.w3.org/1999/xlink" x="0px" y="0px" width="600px" height="458px"
	 viewBox="0 0 600 458" xml:space="preserve">
<g>
	<g>
		<path fill="none" d="M336.113,193.442h-53.347v72.16h53.347V193.442z M309.438,196.242c2.258,0,4.086,1.832,4.086,4.086
			c0,2.258-1.828,4.086-4.086,4.086c-2.254,0-4.082-1.828-4.082-4.086C305.355,198.074,307.184,196.242,309.438,196.242z
			 M307,220.028v2.031h-20.305v-2.031H307z M286.695,214.254v-2.031H307v2.031H286.695z M286.922,228.008h20.305v2.035h-20.305
			V228.008z M284.711,197.586h19.391l0.004,5.488h-19.395V197.586z M331.414,254.039h-44.719v-2.035h44.719V254.039z
			 M331.414,246.11h-44.719v-2.032h44.719V246.11z M331.414,238.082h-44.719v-2.031h44.719V238.082z M314.895,230.071v-18.54h16.516
			l0.004,18.54H314.895z M314.895,203.074v-5.488h19.391l0.004,5.488H314.895z"/>
		<polygon fill="none" points="280.328,256.039 280.328,199.531 272.68,199.531 		"/>
		<polygon fill="none" points="263.844,204.414 276.965,249.387 270.875,204.414 		"/>
		<rect x="286.695" y="252.004" fill="#E85553" width="44.719" height="2.035"/>
		<rect x="286.695" y="236.051" fill="#E85553" width="44.719" height="2.031"/>
		<rect x="314.895" y="211.531" fill="#E85553" width="16.52" height="18.54"/>
		<rect x="286.695" y="244.078" fill="#E85553" width="44.719" height="2.032"/>
		<rect x="314.895" y="197.586" fill="#E85553" width="19.395" height="5.488"/>
		<circle fill="#E85553" cx="309.438" cy="200.328" r="4.086"/>
		<path fill="#E85553" d="M280.328,192.219v4.875h-9.047c-0.351,0-0.688,0.152-0.918,0.414c-0.23,0.266-0.336,0.617-0.289,0.969
			l0.473,3.5h-8.328c-0.383,0-0.746,0.179-0.977,0.488c-0.23,0.305-0.301,0.703-0.191,1.07l18.558,63.625
			c0.153,0.536,0.641,0.879,1.172,0.879h56.551c0.672,0,1.219-0.543,1.219-1.218v-74.598c0-0.676-0.547-1.223-1.219-1.223h-55.785
			C280.871,191,280.328,191.547,280.328,192.219z M263.844,204.414h7.031l6.09,44.973L263.844,204.414z M280.328,256.039
			l-7.648-56.508h7.648V256.039z M282.766,193.442h53.347v72.16h-53.347V193.442z"/>
		<rect x="284.711" y="197.586" fill="#E85553" width="19.391" height="5.488"/>
		<rect x="286.695" y="212.223" fill="#E85553" width="20.305" height="2.031"/>
		<rect x="286.695" y="220.028" fill="#E85553" width="20.305" height="2.031"/>
		<rect x="286.922" y="228.008" fill="#E85553" width="20.305" height="2.035"/>
	</g>
</g>
</svg>
