<svg xmlns="http://www.w3.org/2000/svg" xmlns:xlink="http://www.w3.org/1999/xlink" id="Calque_1" x="0" y="0" version="1.1" viewBox="0 0 100.1 102.6" xml:space="preserve" style="enable-background:new 0 0 100.1 102.6"><style type="text/css">.st0{fill:#fff}</style><g><g><g><g><path d="M55.8,30.7L45.3,49l-5.5-9.2L26,62.7h11.4h16h20.6L55.8,30.7z M40.1,58.1h-6l5.6-9.4l2.9,4.9L40.1,58.1z M45.4,58.1l10.4-18.2l10.4,18.2H45.4z" class="st0"/></g></g></g><g><g><g><path d="M59.2,81H40.9c-1.3,0-2.3,1-2.3,2.3s1,2.3,2.3,2.3h18.3c1.3,0,2.3-1,2.3-2.3S60.5,81,59.2,81z" class="st0"/></g></g></g><g><g><g><path d="M68.3,71.8H31.8c-1.3,0-2.3,1-2.3,2.3c0,1.3,1,2.3,2.3,2.3h36.6c1.3,0,2.3-1,2.3-2.3 C70.6,72.9,69.6,71.8,68.3,71.8z" class="st0"/></g></g></g><path d="M84.4,7.8h-4.6V3.2h-4.6h-4.6h-4h-0.6v4.6H34V3.2h-0.4v0H20.3v4.6h-4.6h-4.6v4.6v82.3v4.6h4.6h68.6h4.6v-4.6 V12.4V7.8H84.4z M70.6,7.8h4.6v4.6h-4.6V7.8z M24.9,7.8h4.6v4.6h-4.6V7.8z M84.4,94.7H15.7V12.4h4.6v4.6H34v-4.6h32v4.6h13.7v-4.6 h4.6V94.7z" class="st0"/></g></svg>