<svg xmlns="http://www.w3.org/2000/svg" xmlns:xlink="http://www.w3.org/1999/xlink" id="Calque_1" x="0" y="0" version="1.1" viewBox="0 0 100.1 102.6" xml:space="preserve" style="enable-background:new 0 0 100.1 102.6"><style type="text/css">.st0{fill:#fff}</style><g><path d="M90.1,61.2c-1.1-1.1-2.5-1.9-4-2.4c0.7-3.1-0.2-6.3-2.4-8.5c-1.1-1.1-2.6-2-4.1-2.3c0.8-3.1-0.1-6.3-2.4-8.5 c-0.8-0.8-1.7-1.4-2.7-1.9l9.3-9.3c3.3-3.7,3-9.4-0.7-12.7c-3.4-3.1-8.6-3.1-12,0L42.2,44.4l-1.7-7.3c-1.5-6.4-7.8-10.4-14.2-8.9 c-2.2,0.5-4.1,1.6-5.7,3.2l0,0c-0.5,0.5-0.8,1.3-0.8,2V69l-8.5,8.5c-1.1,1.1-1.1,2.9,0,4.1l18.4,18.4c0.5,0.5,1.3,0.8,2,0.8h26.6 c3.2,0,6.4-1.2,8.6-3.5l23.3-23.3c3.5-3.5,3.5-9.2,0-12.7c0,0,0,0,0,0H90.1z M74.9,54.4c1.3-1.2,3.4-1.1,4.6,0.2 c1.1,1.2,1.1,3.1,0,4.4l-6.5,6.5c-1.3,1.2-3.4,1.1-4.6-0.2c-1.1-1.2-1.1-3.1,0-4.4L74.9,54.4z M64.4,56.8c-1.3,1.3-3.3,1.3-4.6,0 c-1.3-1.3-1.3-3.3,0-4.6l8.6-8.6c1.3-1.2,3.4-1.1,4.6,0.2c1.1,1.2,1.1,3.1,0,4.4l0,0L64.4,56.8L64.4,56.8z M62.8,93.2 C61.6,94.4,60,95,58.3,95H32.8L17.3,79.5l7.2-7.2c0.5-0.5,0.9-1.3,0.9-2V34.9c2.8-1.9,6.6-1.3,8.5,1.5c0.5,0.7,0.8,1.4,1,2.2 l2.9,12.3c0.1,0.5,0.4,1,0.8,1.4l2.2,2.2c4.9,4.9,4.9,12.8,0,17.6c-1.1,1.1-1.1,2.9,0,4c1.1,1.1,2.9,1.1,4.1,0 c7.1-7.1,7.1-18.6,0-25.7v-0.1l30.2-30.5c1.3-1.2,3.4-1.1,4.6,0.2c1.1,1.2,1.1,3.1,0,4.4L55.7,48.2c-3.5,3.5-3.5,9.2,0,12.7 c1.6,1.6,3.8,2.6,6,2.6c0.1,2.3,1,4.4,2.6,6c1.6,1.6,3.8,2.6,6,2.6c0.1,2.3,1,4.5,2.6,6.1c0.8,0.8,1.8,1.4,2.9,1.9L62.8,93.2z M86.1,69.8L86.1,69.8l-4.3,4.3c-1.3,1.3-3.3,1.3-4.6,0c-1.3-1.3-1.3-3.3,0-4.6l0,0l4.3-4.3c1.3-1.3,3.3-1.3,4.6,0 C87.4,66.5,87.4,68.6,86.1,69.8L86.1,69.8z" class="st0"/><path d="M40.8,21c1.6,0,2.9-1.3,2.9-2.9V5.9c0-1.6-1.3-2.9-2.9-2.9C39.2,3,38,4.3,38,5.9v12.3 C37.9,19.7,39.2,21,40.8,21C40.8,21,40.8,21,40.8,21z" class="st0"/><path d="M26.6,20.3c1.3,1,3.1,0.7,4-0.6c0.8-1,0.8-2.4,0-3.5l-3.1-3.1c-1.2-1-3-0.9-4.1,0.3c-0.9,1.1-0.9,2.7,0,3.7 L26.6,20.3z" class="st0"/><path d="M55.1,20.3l3.1-3.1c1-1.2,0.9-3-0.3-4.1c-1.1-0.9-2.7-0.9-3.7,0l-3.1,3.1c-1.1,1.1-1.1,2.9,0,4 C52.2,21.4,54,21.4,55.1,20.3z" class="st0"/></g></svg>