<?xml version="1.0" encoding="utf-8"?>
<!-- Generator: Adobe Illustrator 21.0.2, SVG Export Plug-In . SVG Version: 6.00 Build 0)  -->
<svg version="1.1" id="Calque_1" xmlns="http://www.w3.org/2000/svg" xmlns:xlink="http://www.w3.org/1999/xlink" x="0px" y="0px"
	 viewBox="0 0 50 50" style="enable-background:new 0 0 50 50;" xml:space="preserve">
<style type="text/css">
	.st0{clip-path:url(#SVGID_2_);fill:#E84B48;}
</style>
<g>
	<defs>
		<rect id="SVGID_1_" x="8.1" y="1.6" width="34.9" height="46.8"/>
	</defs>
	<clipPath id="SVGID_2_">
		<use xlink:href="#SVGID_1_"  style="overflow:visible;"/>
	</clipPath>
	<path class="st0" d="M13.9,26.5c0.1,0,0.2,0.1,0.3,0.1c0.3,0,0.6-0.2,0.7-0.5L24,3.5c0.1-0.1,0.3-0.4,0.8-0.4
		c0.4,0,0.8,0.3,1.1,0.7c0.6,0.8,0.7,1.9,0.4,2.9l-3.8,10.1c-0.2,0.4,0,0.9,0.4,1c0.4,0.2,0.8,0,1-0.4l3.8-10.2
		C28.3,5.8,28,4.1,27.2,3c-0.6-0.8-1.5-1.3-2.3-1.3c-1.2,0-2,0.8-2.2,1.3l-9.1,22.6C13.3,25.9,13.5,26.3,13.9,26.5"/>
	<path class="st0" d="M12.5,23.4c0,0,0.1,0,0.1,0c0.4,0,0.7-0.3,0.7-0.6l3-17.9c0,0,0-0.1,0-0.1c0-0.4,0.1-0.8,0.8-0.8
		c0.7,0,0.8,0.3,1.1,1.4c0,0.1,0.1,0.3,0.1,0.4c0.1,0.4,0.5,0.7,0.9,0.5c0.4-0.1,0.6-0.5,0.5-1c0-0.1-0.1-0.2-0.1-0.4
		c-0.2-0.9-0.6-2.5-2.5-2.5c-1.6,0-2.2,1.3-2.3,2.3l-3,17.9C11.9,23,12.1,23.4,12.5,23.4"/>
	<path class="st0" d="M37.9,29c-1.1,1.3-4.7,3.8-6.2,3.8c-0.9,0-3.8-4.1-3.8-5.5c0-0.9,3.5-3.6,4.5-3.9c0.6,0.2,2.8,2,3.8,2.9
		c0.4,0.3,0.8,0.6,1,0.9c0.1,0.1,0.3,0.2,0.4,0.3c0.3,0.3,0.7,0.6,1.1,0.9C38.4,28.6,38.1,28.8,37.9,29 M42.2,29
		c-0.2-0.2-0.5-0.4-0.7-0.6c0.1,0,0.1-0.1,0.2-0.1c1.5-1.3,0.5-3,0.1-3.7c-1.4-2.6-7.3-8.2-9.4-8.2c-2.6,0-9.6,3.3-12.7,6.5
		c-1,1-1,2.7-1,2.9c0,0.4,0.3,0.8,0.8,0.8h0c0.4,0,0.8-0.3,0.8-0.8c0-0.3,0.1-1.3,0.5-1.8c2.9-3,9.5-6,11.6-6c1.1,0,6.5,4.6,8.1,7.5
		c0.5,0.9,0.5,1.3,0.1,1.7c-0.4,0.3-0.8,0.2-2-0.8c-0.2-0.1-0.3-0.3-0.4-0.4c-0.3-0.2-0.6-0.5-1-0.8c-2.7-2.3-4-3.2-4.8-3.2
		c-1.1,0-6.1,3.4-6.1,5.5c0,1.9,3.3,7,5.3,7c2.2,0,6.2-2.9,7.4-4.3c0.2-0.2,1.1-1,2.1,0c1,1-0.1,2.3-0.1,2.4L33.4,40
		c-1.5,1.6-2.3,4.9-2.5,6.8H19.2C13.8,38,11,29.6,10.4,27.1C9.8,24.8,9.6,14,9.6,8.6c0-0.3,0.4-0.8,0.8-0.8c0.8,0,0.9,0.1,1.1,0.8
		l0.1,0.2c0.1,0.4,0.6,0.6,1,0.5c0.4-0.1,0.6-0.6,0.5-1l-0.1-0.2c-0.3-0.8-0.6-1.9-2.5-1.9c-1.2,0-2.3,1.1-2.3,2.3
		c0,0.6,0,15.7,0.8,18.9c0.6,2.6,3.5,11.4,9.2,20.5c0.1,0.2,0.4,0.4,0.6,0.4h12.9c0.4,0,0.8-0.3,0.8-0.8c0-1.5,0.8-5.2,2-6.5
		l7.6-7.6C42.8,32.7,43.8,30.7,42.2,29"/>
</g>
</svg>
