<svg xmlns="http://www.w3.org/2000/svg" xmlns:xlink="http://www.w3.org/1999/xlink" id="Calque_1" x="0" y="0" version="1.1" viewBox="0 0 100.1 102.6" xml:space="preserve" style="enable-background:new 0 0 100.1 102.6"><style type="text/css">.st0{fill:#ef5451}</style><g><circle cx="79.1" cy="44.2" r="3.4" class="st0"/><g><path d="M69.9,72.9H30.1c-1.3,0-2.4-1.1-2.4-2.4c0-1.3,1.1-2.4,2.4-2.4h39.8c1.3,0,2.4,1.1,2.4,2.4 C72.3,71.8,71.2,72.9,69.9,72.9z" class="st0"/></g><g><path d="M69.9,84.7H30.1c-1.3,0-2.4-1.1-2.4-2.4s1.1-2.4,2.4-2.4h39.8c1.3,0,2.4,1.1,2.4,2.4S71.2,84.7,69.9,84.7z" class="st0"/></g><path d="M91.9,26.8h-7c0-0.1,0-0.2,0-0.3V10.7c0-2.8-2.2-5-5-5H20.1c-2.8,0-5,2.2-5,5v15.9c0,0.1,0,0.2,0,0.3h-7 c-2.8,0-5,2.2-5,5v40.3c0,2.8,2.2,5,5,5h7v14.8c0,2.8,2.2,5,5,5h59.8c2.8,0,5-2.2,5-5V77.2h7c2.8,0,5-2.2,5-5V31.8 C96.9,29,94.7,26.8,91.9,26.8z M19.9,10.7c0-0.1,0.1-0.3,0.3-0.3h59.8c0.1,0,0.3,0.1,0.3,0.3v15.9c0,0.1-0.1,0.3-0.3,0.3H20.1 c-0.1,0-0.3-0.1-0.3-0.3V10.7z M80.2,69.5v2.9v4.7v3.2v11.6c0,0.1-0.1,0.3-0.3,0.3H20.1c-0.1,0-0.3-0.1-0.3-0.3V80.3v-3.2v-4.7 v-2.9v-7.6c0-0.1,0.1-0.3,0.3-0.3h59.8c0.1,0,0.3,0.1,0.3,0.3V69.5z M92.2,72.1c0,0.1-0.1,0.3-0.3,0.3h-7V61.9c0-2.8-2.2-5-5-5 H20.1c-2.8,0-5,2.2-5,5v10.5h-7c-0.1,0-0.3-0.1-0.3-0.3V31.8c0-0.1,0.1-0.3,0.3-0.3h12h59.8h12c0.1,0,0.3,0.1,0.3,0.3V72.1z" class="st0"/></g></svg>