<?xml version="1.0" encoding="utf-8"?>
<!-- Generator: Adobe Illustrator 26.0.1, SVG Export Plug-In . SVG Version: 6.00 Build 0)  -->
<svg version="1.1" id="Calque_1" xmlns="http://www.w3.org/2000/svg" xmlns:xlink="http://www.w3.org/1999/xlink" x="0px" y="0px"
	 viewBox="0 0 100.1 102.6" style="enable-background:new 0 0 100.1 102.6;" xml:space="preserve">
<style type="text/css">
	.st0{fill:#EF5451;}
</style>
<g>
	<path class="st0" d="M6.4,42.2c0-1,0.9-1.9,1.9-1.9h51.9c1.1,0,1.9,0.8,1.9,1.9v27.9c0,1-0.9,1.8-1.9,1.8H8.3
		c-1.1,0-1.9-0.8-1.9-1.8V42.2z M27.5,10.6c0-2.1,1.7-3.7,3.9-3.7H66v24.1c0,1,0.9,1.9,1.9,1.9h25v59.4c0,2-1.7,3.7-3.9,3.7H31.4
		c-2.1,0-3.9-1.7-3.9-3.7V75.6h32.7c3.2,0,5.8-2.5,5.8-5.6V42.2c0-3.1-2.6-5.6-5.8-5.6H27.5V10.6z M69.8,8.2l20.9,21H69.8V8.2z
		 M8.3,75.6h15.4v16.7c0,4.1,3.5,7.4,7.7,7.4H89c4.1,0,7.5-3.1,7.7-7V30.4c0-0.4-0.2-0.8-0.5-1.1L70.7,3.8c-0.4-0.4-0.9-0.6-1.4-0.6
		H31.4c-4.2,0-7.7,3.3-7.7,7.4v26H8.3c-3.2,0-5.8,2.5-5.8,5.6v27.9C2.6,73.1,5.1,75.6,8.3,75.6"/>
	<path class="st0" d="M22.5,54.8c-0.2,0.3-0.6,0.6-1,0.8c-0.4,0.2-1.3,0.2-2.6,0.2h-1.8v-4.4h1.6c1.2,0,2,0,2.3,0.1
		c0.5,0.1,1,0.3,1.3,0.7c0.3,0.4,0.5,0.8,0.5,1.4C22.9,54,22.8,54.4,22.5,54.8 M25.3,50.5c-0.6-0.8-1.4-1.3-2.3-1.5
		c-0.6-0.2-1.9-0.2-3.9-0.2h-5.2v15.7h3.3v-5.9h2.1c1.5,0,2.6-0.1,3.4-0.2c0.6-0.1,1.1-0.4,1.7-0.7c0.6-0.4,1-0.9,1.4-1.5
		c0.4-0.7,0.5-1.5,0.5-2.4C26.3,52.3,25.9,51.2,25.3,50.5"/>
	<path class="st0" d="M39.2,59.4c-0.2,0.7-0.5,1.2-0.9,1.5c-0.3,0.3-0.8,0.5-1.3,0.7c-0.4,0.1-1.1,0.2-2,0.2h-2.4V51.3H34
		c1.3,0,2.2,0.1,2.7,0.2c0.6,0.1,1.1,0.4,1.5,0.7c0.4,0.4,0.7,0.9,0.9,1.5c0.2,0.6,0.3,1.6,0.3,2.8C39.5,57.7,39.4,58.7,39.2,59.4
		 M42.3,53c-0.4-1-0.9-1.8-1.5-2.5c-0.7-0.7-1.5-1.2-2.4-1.4c-0.7-0.2-1.7-0.3-3.1-0.3h-6v15.7h6.1c1.2,0,2.2-0.1,2.9-0.3
		c1-0.3,1.7-0.7,2.3-1.3c0.8-0.7,1.3-1.6,1.7-2.8c0.3-0.9,0.5-2,0.5-3.3C42.9,55.2,42.7,54,42.3,53"/>
</g>
<polygon class="st0" points="57.1,51.3 57.1,48.7 46.1,48.7 46.1,64.4 49.3,64.4 49.3,57.7 56,57.7 56,55 49.3,55 49.3,51.3 "/>
</svg>
