<?xml version="1.0" encoding="utf-8"?>
<!-- Generator: Adobe Illustrator 16.0.0, SVG Export Plug-In . SVG Version: 6.00 Build 0)  -->
<svg version="1.2" baseProfile="tiny" id="Calque_1"
	 xmlns="http://www.w3.org/2000/svg" xmlns:xlink="http://www.w3.org/1999/xlink" x="0px" y="0px" width="600px" height="458px"
	 viewBox="0 0 600 458" xml:space="preserve">
<g>
	<g>
		<polygon fill="none" points="382.691,45.586 382.691,134.597 468.355,134.597 		"/>
		<path fill="none" d="M130.617,315.765h212.707c4.332,0,7.859-3.522,7.859-7.854V189.715c0-4.333-3.523-7.856-7.859-7.856H130.617
			c-4.336,0-7.863,3.523-7.863,7.856V307.91C122.754,312.242,126.281,315.765,130.617,315.765z"/>
		<path fill="none" d="M366.938,189.715V307.91c0,13.019-10.594,23.608-23.613,23.608H209.398v70.903
			c0,8.683,7.094,15.746,15.813,15.746h236.191c8.719,0,15.813-7.055,15.813-15.727v-252.09H374.816
			c-4.352,0-7.879-3.527-7.879-7.879V40.074H225.211c-8.719,0-15.813,7.086-15.813,15.801v110.23h133.926
			C356.344,166.105,366.938,176.695,366.938,189.715z"/>
		<path fill="#17294F" d="M130.617,331.519h63.028v70.903c0,17.367,14.164,31.5,31.566,31.5h236.191
			c16.828,0,30.62-13.203,31.518-29.763V139.785c-0.186-1.729-0.937-3.357-2.15-4.621L386.418,26.734
			c-1.488-1.543-3.535-2.414-5.676-2.414H225.211c-17.402,0-31.566,14.156-31.566,31.555v110.23h-63.028
			c-13.023,0-23.617,10.59-23.617,23.61V307.91C107,320.929,117.594,331.519,130.617,331.519z M382.691,45.586l85.664,89.011
			h-85.664V45.586z M209.398,55.875c0-8.715,7.094-15.801,15.813-15.801h141.727v102.398c0,4.352,3.527,7.879,7.879,7.879h102.398
			v252.09c0,8.672-7.094,15.727-15.813,15.727H225.211c-8.719,0-15.813-7.063-15.813-15.746v-70.903h133.926
			c13.02,0,23.613-10.59,23.613-23.608V189.715c0-13.02-10.594-23.61-23.613-23.61H209.398V55.875z M122.754,189.715
			c0-4.333,3.527-7.856,7.863-7.856h212.707c4.336,0,7.859,3.523,7.859,7.856V307.91c0,4.332-3.527,7.854-7.859,7.854H130.617
			c-4.336,0-7.863-3.522-7.863-7.854V189.715z"/>
	</g>
	<path fill="#17294F" d="M201.168,224.234c-2.613-3.398-5.859-5.605-9.738-6.621c-2.524-0.68-7.938-1.016-16.246-1.016h-21.922
		v67.66h13.66v-25.522h8.91c6.184,0,10.906-0.32,14.168-0.97c2.402-0.522,4.762-1.59,7.086-3.207
		c2.324-1.617,4.238-3.84,5.746-6.668c1.508-2.832,2.262-6.324,2.262-10.476C205.094,232.027,203.785,227.636,201.168,224.234
		L201.168,224.234z M189.469,242.859c-1.031,1.508-2.453,2.612-4.27,3.323c-1.816,0.707-5.414,1.06-10.801,1.06h-7.476v-19.199
		h6.601c4.922,0,8.2,0.152,9.832,0.461c2.215,0.402,4.043,1.402,5.489,3c1.449,1.601,2.172,3.632,2.172,6.093
		C191.016,239.597,190.5,241.351,189.469,242.859L189.469,242.859z M189.469,242.859"/>
	<path fill="#17294F" d="M270.77,235.082c-1.477-4.325-3.633-7.977-6.461-10.961c-2.832-2.985-6.231-5.063-10.2-6.231
		c-2.953-0.863-7.246-1.293-12.879-1.293h-24.968v67.66h25.707c5.047,0,9.078-0.476,12.093-1.429
		c4.032-1.293,7.231-3.094,9.598-5.403c3.141-3.043,5.555-7.027,7.246-11.953c1.387-4.031,2.078-8.828,2.078-14.397
		C272.984,244.734,272.246,239.406,270.77,235.082L270.77,235.082z M257.477,262.867c-0.922,3.03-2.114,5.207-3.579,6.53
		c-1.46,1.32-3.296,2.263-5.511,2.813c-1.696,0.433-4.449,0.648-8.262,0.648h-10.203v-44.816h6.14c5.567,0,9.309,0.214,11.215,0.648
		c2.555,0.551,4.661,1.613,6.325,3.184c1.66,1.57,2.953,3.754,3.875,6.554c0.921,2.797,1.386,6.813,1.386,12.047
		C258.863,255.707,258.398,259.836,257.477,262.867L257.477,262.867z M257.477,262.867"/>
	<path fill="#17294F" d="M331.047,228.043v-11.446H284.66v67.66h13.664v-28.753h28.246v-11.446h-28.246v-16.015H331.047z
		 M331.047,228.043"/>
</g>
</svg>
