<?xml version="1.0" encoding="utf-8"?>
<!-- Generator: Adobe Illustrator 16.0.0, SVG Export Plug-In . SVG Version: 6.00 Build 0)  -->
<svg version="1.2" baseProfile="tiny" id="Calque_1"
	 xmlns="http://www.w3.org/2000/svg" xmlns:xlink="http://www.w3.org/1999/xlink" x="0px" y="0px" width="600px" height="458px"
	 viewBox="0 0 600 458" xml:space="preserve">
<g>
	<path fill="#E85553" d="M181,403.919h236.961c37.121,0,67.505-29.018,69.839-65.488V233.89c-0.854-5.082-5.259-9.01-10.64-9.01
		c-6,0-10.801,4.801-10.801,10.801v98.238c0,26.719-21.758,48.403-48.398,48.403H181c-26.719,0-48.398-21.763-48.398-48.403V234.08
		c0-6-4.801-10.801-10.801-10.801S111,228.08,111,234.08v99.839C111,372.56,142.441,403.919,181,403.919z"/>
	<path fill="#E85553" d="M291.879,318.162c2.082,2.078,4.883,3.199,7.601,3.199c2.719,0,5.52-1.039,7.598-3.199l68.641-68.642
		c4.242-4.241,4.242-11.039,0-15.28c-4.238-4.239-11.039-4.239-15.277,0l-50.16,50.241V65.361c0-6-4.801-10.801-10.801-10.801
		c-6,0-10.8,4.801-10.8,10.801v219.121l-50.239-50.241c-4.242-4.239-11.043-4.239-15.281,0c-4.238,4.241-4.238,11.039,0,15.28
		L291.879,318.162z M291.879,318.162"/>
</g>
</svg>
